HIERARCHY
ROOT root
{
  OFFSET 0 79.8113 0
  CHANNELS 6 Xposition Yposition Zposition Zrotation Xrotation Yrotation
  JOINT torso_1
  {
    OFFSET 0 4.34476 -0.984994
    CHANNELS 6 Xposition Yposition Zposition Zrotation Xrotation Yrotation
    JOINT torso_2
    {
      OFFSET 0 4.80497 0.916596
      CHANNELS 6 Xposition Yposition Zposition Zrotation Xrotation Yrotation
      JOINT torso_3
      {
        OFFSET -8.77771e-18 5.1242 0.0983897
        CHANNELS 6 Xposition Yposition Zposition Zrotation Xrotation Yrotation
        JOINT torso_4
        {
          OFFSET -9.44946e-18 5.56568 -0.37943
          CHANNELS 6 Xposition Yposition Zposition Zrotation Xrotation Yrotation
          JOINT torso_5
          {
            OFFSET -1.68784e-17 6.50642 -1.28831
            CHANNELS 6 Xposition Yposition Zposition Zrotation Xrotation Yrotation
            JOINT torso_6
            {
              OFFSET -2.16702e-17 8.12491 -0.78234
              CHANNELS 6 Xposition Yposition Zposition Zrotation Xrotation Yrotation
              JOINT torso_7
              {
                OFFSET -2.48435e-17 9.02658 1.34903
                CHANNELS 6 Xposition Yposition Zposition Zrotation Xrotation Yrotation
                JOINT neck_1
                {
                  OFFSET -1.10523e-17 4.09476 0.611966
                  CHANNELS 6 Xposition Yposition Zposition Zrotation Xrotation Yrotation
                  JOINT neck_2
                  {
                    OFFSET -1.54981e-17 4.1244 0.360838
                    CHANNELS 6 Xposition Yposition Zposition Zrotation Xrotation Yrotation
                    JOINT head
                    {
                      OFFSET -1.71918e-17 4.13237 0.654504
                      CHANNELS 6 Xposition Yposition Zposition Zrotation Xrotation Yrotation
                      End Site
                      {
                        OFFSET 0 0.1 0
                      }
                    }
                  }
                }
                JOINT l_shoulder
                {
                  OFFSET 1.05481 -6.50798 6.44505
                  CHANNELS 6 Xposition Yposition Zposition Zrotation Xrotation Yrotation
                  JOINT l_up_arm
                  {
                    OFFSET 11.0826 2.77992 -2.79636
                    CHANNELS 6 Xposition Yposition Zposition Zrotation Xrotation Yrotation
                    JOINT l_low_arm
                    {
                      OFFSET 24.9873 0.0511653 0.117236
                      CHANNELS 6 Xposition Yposition Zposition Zrotation Xrotation Yrotation
                      JOINT l_hand
                      {
                        OFFSET 20.7319 0.0424511 0.0972706
                        CHANNELS 6 Xposition Yposition Zposition Zrotation Xrotation Yrotation
                        End Site
                        {
                          OFFSET 0.1 0 0
                        }
                      }
                    }
                  }
                }
                JOINT r_shoulder
                {
                  OFFSET -1.05481 -6.50797 6.44497
                  CHANNELS 6 Xposition Yposition Zposition Zrotation Xrotation Yrotation
                  JOINT r_up_arm
                  {
                    OFFSET -11.0826 2.77992 -2.79636
                    CHANNELS 6 Xposition Yposition Zposition Zrotation Xrotation Yrotation
                    JOINT r_low_arm
                    {
                      OFFSET -24.9873 0.0511653 0.117236
                      CHANNELS 6 Xposition Yposition Zposition Zrotation Xrotation Yrotation
                      JOINT r_hand
                      {
                        OFFSET -20.7319 0.042451 0.0972707
                        CHANNELS 6 Xposition Yposition Zposition Zrotation Xrotation Yrotation
                        End Site
                        {
                          OFFSET -0.1 0 0
                        }
                      }
                    }
                  }
                }
              }
            }
          }
        }
      }
    }
  }
  JOINT l_up_leg
  {
    OFFSET 7.90195 -3.59782 1.73896
    CHANNELS 6 Xposition Yposition Zposition Zrotation Xrotation Yrotation
    JOINT l_low_leg
    {
      OFFSET -0.72918 -33.1692 -0.560506
      CHANNELS 6 Xposition Yposition Zposition Zrotation Xrotation Yrotation
      JOINT l_foot
      {
        OFFSET -1.99006 -34.5633 -5.17465
        CHANNELS 6 Xposition Yposition Zposition Zrotation Xrotation Yrotation
        JOINT l_toes
        {
          OFFSET 0.66651 -8.45602 10.6902
          CHANNELS 6 Xposition Yposition Zposition Zrotation Xrotation Yrotation
          End Site
          {
            OFFSET 0 0 0.1
          }
        }
      }
    }
  }
  JOINT r_up_leg
  {
    OFFSET -7.90195 -3.59782 1.73896
    CHANNELS 6 Xposition Yposition Zposition Zrotation Xrotation Yrotation
    JOINT r_low_leg
    {
      OFFSET 0.72918 -33.1692 -0.560506
      CHANNELS 6 Xposition Yposition Zposition Zrotation Xrotation Yrotation
      JOINT r_foot
      {
        OFFSET 1.99006 -34.5633 -5.17465
        CHANNELS 6 Xposition Yposition Zposition Zrotation Xrotation Yrotation
        JOINT r_toes
        {
          OFFSET -0.66651 -8.45602 10.6902
          CHANNELS 6 Xposition Yposition Zposition Zrotation Xrotation Yrotation
          End Site
          {
            OFFSET 0 0 0.1
          }
        }
      }
    }
  }
}
MOTION
Frames: 4
Frame Time: 0.020000
315.683 78.4347 435.759 5.03906 -3.97913 60.4495 0 4.34476 -0.984994 -0.576012 2.97496 0.24639 0 4.80497 0.916596 -0.207176 2.67197 0.081727 -8.77771e-18 5.1242 0.0983897 -0.03099 2.74793 0.163258 -9.44946e-18 5.56568 -0.37943 0.106295 2.33207 0.200236 -1.68784e-17 6.50642 -1.28831 0.318606 1.6119 0.152297 -2.16702e-17 8.12491 -0.78234 0.587094 1.34011 -0.188349 -2.48435e-17 9.02658 1.34903 -0.0538 1.00783 0.123038 -1.10523e-17 4.09476 0.611966 0.131573 -3.4387 -3.22875 -1.54981e-17 4.1244 0.360838 0.717238 -6.1963 -1.59991 -1.71918e-17 4.13237 0.654504 1.3194 -5.42581 0.601143 1.05481 -6.50798 6.44505 -1.91696 4.44228 -3.71297 11.0826 2.77992 -2.79636 -82.6627 22.261 -5.33884 24.9873 0.0511653 0.117236 1.63818 -0.104933 -7.91885 20.7319 0.0424511 0.0972706 1.32109 -24.1503 -2.67231 -1.05481 -6.50797 6.44497 5.79756 6.61908 4.22886 -11.0826 2.77992 -2.79636 77.9672 14.2207 4.33334 -24.9873 0.0511653 0.117236 -0.604606 -0.0121428 2.91458 -20.7319 0.042451 0.0972707 -1.69656 7.96111 4.74675 7.90195 -3.59782 1.73896 -0.61542 -0.947227 -21.3337 -0.72918 -33.1692 -0.560506 -1.38969 5.1873 -0.0276468 -1.99006 -34.5633 -5.17465 1.77577 -3.99939 15.1995 0.66651 -8.45602 10.6902 2.48481e-17 -7.95139e-16 1.2424e-17 -7.90195 -3.59782 1.73896 -0.446251 2.90091 13.7315 0.72918 -33.1692 -0.560506 1.67136 6.23484 0.0178993 1.99006 -34.5633 -5.17465 -3.31297 -5.67827 -15.1915 -0.66651 -8.45602 10.6902 -5.96354e-16 -5.59082e-16 -1.27471e-14 
315.683 78.4351 435.758 5.04218 -3.97815 60.4805 0 4.34476 -0.984994 -0.581534 2.99191 0.239424 0 4.80497 0.916596 -0.209239 2.68366 0.0742034 -8.77771e-18 5.1242 0.0983897 -0.0309339 2.75433 0.156202 -9.44946e-18 5.56568 -0.37943 0.108364 2.33 0.193323 -1.68784e-17 6.50642 -1.28831 0.321538 1.60262 0.144813 -2.16702e-17 8.12491 -0.78234 0.590103 1.32754 -0.196825 -2.48435e-17 9.02658 1.34903 -0.0533365 1.00926 0.124164 -1.10523e-17 4.09476 0.611966 0.142896 -3.44006 -3.20552 -1.54981e-17 4.1244 0.360838 0.739833 -6.17914 -1.58776 -1.71918e-17 4.13237 0.654504 1.34946 -5.39359 0.620087 1.05481 -6.50798 6.44505 -1.91231 4.45596 -3.72318 11.0826 2.77992 -2.79636 -82.6599 22.3075 -5.3501 24.9873 0.0511653 0.117236 1.63615 -0.104662 -7.90899 20.7319 0.0424511 0.0972706 1.30806 -24.2096 -2.68441 -1.05481 -6.50797 6.44497 5.7949 6.65383 4.24434 -11.0826 2.77992 -2.79636 77.9412 14.1546 4.26171 -24.9873 0.0511653 0.117236 -0.590522 -0.0115068 2.84662 -20.7319 0.042451 0.0972707 -1.70545 7.93482 4.75732 7.90195 -3.59782 1.73896 -0.617447 -0.951616 -21.3495 -0.72918 -33.1692 -0.560506 -1.39097 5.1921 -0.027614 -1.99006 -34.5633 -5.17465 1.77518 -3.99479 15.199 0.66651 -8.45602 10.6902 2.48481e-17 -7.95139e-16 1.2424e-17 -7.90195 -3.59782 1.73896 -0.445893 2.90233 13.715 0.72918 -33.1692 -0.560506 1.67393 6.24436 0.0177868 1.99006 -34.5633 -5.17465 -3.31193 -5.67805 -15.192 -0.66651 -8.45602 10.6902 -5.96354e-16 -5.59082e-16 -1.27471e-14 
315.684 78.4365 435.757 5.05546 -3.97222 60.5073 0 4.34476 -0.984994 -0.590255 3.00863 0.233514 0 4.80497 0.916596 -0.214356 2.6949 0.0670987 -8.77771e-18 5.1242 0.0983897 -0.0336249 2.75977 0.149252 -9.44946e-18 5.56568 -0.37943 0.107951 2.32601 0.186389 -1.68784e-17 6.50642 -1.28831 0.322242 1.59144 0.137696 -2.16702e-17 8.12491 -0.78234 0.591137 1.31235 -0.204365 -2.48435e-17 9.02658 1.34903 -0.0532642 1.01091 0.124961 -1.10523e-17 4.09476 0.611966 0.149941 -3.4377 -3.19217 -1.54981e-17 4.1244 0.360838 0.754176 -6.16726 -1.5807 -1.71918e-17 4.13237 0.654504 1.3733 -5.37408 0.63768 1.05481 -6.50798 6.44505 -1.89976 4.46504 -3.72317 11.0826 2.77992 -2.79636 -82.6733 22.3152 -5.34488 24.9873 0.0511653 0.117236 1.63419 -0.1044 -7.89945 20.7319 0.0424511 0.0972706 1.31722 -24.2246 -2.68912 -1.05481 -6.50797 6.44497 5.78066 6.67867 4.24758 -11.0826 2.77992 -2.79636 77.9409 14.0849 4.18383 -24.9873 0.0511653 0.117236 -0.578868 -0.0109931 2.79039 -20.7319 0.042451 0.0972707 -1.72922 7.9727 4.7704 7.90195 -3.59782 1.73896 -0.628177 -0.946929 -21.361 -0.72918 -33.1692 -0.560506 -1.39101 5.19223 -0.0276131 -1.99006 -34.5633 -5.17465 1.76918 -3.98007 15.1979 0.66651 -8.45602 10.6902 2.48481e-17 -7.95139e-16 1.2424e-17 -7.90195 -3.59782 1.73896 -0.454073 2.90505 13.6978 0.72918 -33.1692 -0.560506 1.67895 6.26301 0.0175653 1.99006 -34.5633 -5.17465 -3.3242 -5.6759 -15.1913 -0.66651 -8.45602 10.6902 -5.96354e-16 -5.59082e-16 -1.27471e-14 
315.686 78.4381 435.757 5.05897 -3.97088 60.5259 0 4.34476 -0.984994 -0.598171 3.0204 0.228701 0 4.80497 0.916596 -0.218906 2.70313 0.0612704 -8.77771e-18 5.1242 0.0983897 -0.0358207 2.76437 0.143552 -9.44946e-18 5.56568 -0.37943 0.108044 2.32439 0.180704 -1.68784e-17 6.50642 -1.28831 0.323727 1.58499 0.131762 -2.16702e-17 8.12491 -0.78234 0.593347 1.30314 -0.211071 -2.48435e-17 9.02658 1.34903 -0.0529377 1.01163 0.12544 -1.10523e-17 4.09476 0.611966 0.160228 -3.40441 -3.17833 -1.54981e-17 4.1244 0.360838 0.775872 -6.15941 -1.57327 -1.71918e-17 4.13237 0.654504 1.39227 -5.37297 0.645249 1.05481 -6.50798 6.44505 -1.87846 4.46348 -3.71194 11.0826 2.77992 -2.79636 -82.7018 22.322 -5.32811 24.9873 0.0511653 0.117236 1.63401 -0.104376 -7.89856 20.7319 0.0424511 0.0972706 1.31971 -24.282 -2.7121 -1.05481 -6.50797 6.44497 5.7563 6.68713 4.23701 -11.0826 2.77992 -2.79636 77.9582 14.0065 4.10544 -24.9873 0.0511653 0.117236 -0.570743 -0.0106418 2.75118 -20.7319 0.042451 0.0972707 -1.75843 8.05415 4.77895 7.90195 -3.59782 1.73896 -0.630437 -0.947237 -21.3618 -0.72918 -33.1692 -0.560506 -1.39189 5.19551 -0.0275906 -1.99006 -34.5633 -5.17465 1.76976 -3.97113 15.1976 0.66651 -8.45602 10.6902 2.48481e-17 -7.95139e-16 1.2424e-17 -7.90195 -3.59782 1.73896 -0.454267 2.90518 13.6847 0.72918 -33.1692 -0.560506 1.68244 6.276 0.0174101 1.99006 -34.5633 -5.17465 -3.32271 -5.67231 -15.1913 -0.66651 -8.45602 10.6902 -5.96354e-16 -5.59082e-16 -1.27471e-14 
